<svg xmlns="http://www.w3.org/2000/svg" width="28" height="28" fill="none"><rect width="28" height="28" fill="#FB2D8D" rx="3"/><path fill="#fff" stroke="#fff" stroke-linecap="round" stroke-linejoin="round" stroke-width="1.4" d="M9 21c1.105 0 2-.933 2-2.084s-.895-2.084-2-2.084-2 .933-2 2.084C7 20.066 7.895 21 9 21ZM19 18.916c1.105 0 2-.933 2-2.084s-.895-2.084-2-2.084-2 .933-2 2.084c0 1.15.895 2.084 2 2.084Z"/><path stroke="#fff" stroke-linecap="round" stroke-linejoin="round" stroke-width="1.4" d="M21 16.834v-7.75c0-.317-.07-.63-.203-.914a2.07 2.07 0 0 0-.566-.729 1.965 1.965 0 0 0-.816-.396 1.922 1.922 0 0 0-.9.017l-6 1.042a1.995 1.995 0 0 0-1.091.74A2.14 2.14 0 0 0 11 10.124v8.792"/></svg>